<?xml version="1.0" encoding="UTF-8"?><svg id="Capa_1" xmlns="http://www.w3.org/2000/svg" viewBox="0 0 735.46 130.18"><defs><style>.cls-1{fill:#fff;}</style></defs><path class="cls-1" d="M470.79,65.01c0-17.31-.02-34.62,0-51.93.01-9.73.54-10.25,10.03-10.24,17.81,0,35.65-.69,53.42.2,23.6,1.18,43.45,10.14,54.64,32.4,16.68,33.19,4.72,84.5-47.44,90.86-14.11,1.72-28.54.89-42.83,1.15-6.16.11-12.32.02-18.48.02-8.48,0-9.32-.81-9.34-9.52-.04-17.64-.01-35.29-.01-52.93ZM500.82,64.61c0,11.3.09,22.61-.05,33.91-.04,3.21.97,4.41,4.28,4.34,8.81-.19,17.63.15,26.43-.16,17.02-.59,29.78-11.11,33.18-27.64.99-4.8.84-9.92.6-14.87-.79-16.56-11.5-29.29-27.85-31.54-10.45-1.44-21.19-.74-31.78-1.22-3.69-.17-4.94,1-4.87,4.77.22,10.8.08,21.61.08,32.41Z"/><path class="cls-1" d="M205.13.46c30.18.9,52.53,11.34,64.68,37.33,17.3,37.02-2.34,82.57-48.11,90.58-15.88,2.78-31.48,1.5-46.21-5.69-25.46-12.42-38.74-36.7-35.87-65.41,2.58-25.82,21.84-47.67,48.23-54.2,6.39-1.58,13.07-2,17.29-2.62ZM207.78,26.36c-20.41-.69-38.13,13.79-38.45,38.76-.29,22.65,15.84,38.72,37.94,38.81,22.43.09,38.13-15.64,38.24-38.3.11-23.27-15.2-39.2-37.73-39.27Z"/><path class="cls-1" d="M.59,64.83c0-18.15-.01-36.3,0-54.45,0-6.46,1.09-7.52,7.57-7.55,4.83-.02,9.66-.03,14.49,0,6.02.04,7.57,1.59,7.59,7.75.04,11.82.18,23.65-.07,35.46-.09,4.28,1.48,5.42,5.49,5.38,15.82-.16,31.64-.2,47.45.02,4.48.06,5.67-1.54,5.57-5.83-.26-11.15-.1-22.31-.09-33.47,0-8.42.95-9.32,9.55-9.33,4.83,0,9.66.02,14.49,0,3.64-.02,5.58,1.78,5.84,5.38.13,1.82.19,3.66.19,5.49.01,33.97,0,67.93,0,101.9,0,1.5.01,3-.08,4.49-.39,6.23-1.59,7.34-8.01,7.36-4.99.02-9.99.06-14.98-.01-5.03-.07-6.93-1.87-6.97-6.94-.09-12.82-.18-25.64.05-38.46.07-4.03-1.39-5.19-5.19-5.16-16.15.13-32.3.13-48.45,0-3.7-.03-4.9,1.32-4.84,4.99.18,12.65.1,25.31.05,37.96-.02,6.14-1.53,7.59-7.7,7.62-4.99.03-9.99.04-14.99,0-5.7-.06-6.95-1.32-6.95-7.17-.03-18.48,0-36.96,0-55.45Z"/><path class="cls-1" d="M646.73,44.01c0,11.48-.43,22.98.11,34.43.68,14.41,10.99,24.62,24.63,25.36,18.98,1.02,29.86-6.39,32.59-22.53.74-4.39.92-8.91.94-13.38.1-18.98.03-37.95.05-56.93,0-6.9,1.26-8.12,8.13-8.14,4.99-.01,9.99.05,14.98-.01,4.37-.05,6.48,2.16,6.48,6.39.01,22.64.64,45.3-.21,67.91-1.17,31.44-23.49,51.99-55.14,52.4-11.26.15-22.28-.68-32.66-5.41-17.58-8.01-28-22.1-29.21-40.93-1.58-24.53-.95-49.21-1.18-73.82-.04-4.43,2.27-6.67,6.89-6.56,5.32.13,10.66.2,15.98-.02,4.91-.2,7.07,2.01,7.06,6.77-.02,11.49,0,22.97,0,34.46.19,0,.38,0,.57,0Z"/><path class="cls-1" d="M296.42,64.95c0-17.98-.02-35.96,0-53.94,0-6.8,1.4-8.16,8.18-8.18,4.83-.02,9.66-.04,14.48,0,5.77.06,6.98,1.27,6.99,7.1.02,28.97.12,57.93-.1,86.9-.04,4.77,1.23,6.21,6.08,6.13,17.81-.28,35.62-.13,53.44-.1,7.17.01,8.51,1.36,8.53,8.35,0,3.16.04,6.33,0,9.49-.08,5.39-1.39,6.73-6.88,6.74-18.64.04-37.29.02-55.94.02-8.66,0-17.31,0-25.97,0-7.61,0-8.81-1.23-8.81-9.07-.01-17.81,0-35.63,0-53.44Z"/><path class="cls-1" d="M413.38,65.03c0-17.81-.02-35.62,0-53.43,0-7.43,1.34-8.76,8.66-8.77,4.99,0,9.99.07,14.98-.02,3.87-.07,5.93,1.71,6.2,5.54.11,1.49.17,2.99.17,4.49,0,34.79.01,69.58,0,104.37,0,1.83-.1,3.66-.29,5.48-.32,3.16-2.18,4.73-5.32,4.75-6.16.03-12.32.08-18.48-.01-4.88-.08-5.94-3.34-5.94-7.46.03-18.31.01-36.62,0-54.93Z"/></svg>