<?xml version="1.0" encoding="UTF-8"?><svg id="Capa_1" xmlns="http://www.w3.org/2000/svg" viewBox="0 0 353.76 381.41"><defs><style>.cls-1{fill:#00809d;}</style></defs><path class="cls-1" d="M1.4,214.41c0-29.63,0-59.27,0-88.9,0-20.38,8.73-36.01,26.22-46.23,40.63-23.75,81.4-47.27,122.23-70.67,18.27-10.48,36.69-10.06,54.94.49,39.59,22.87,79.19,45.71,118.81,68.51,19.27,11.09,28.95,27.52,28.89,49.92-.15,52.11,0,104.22-.09,156.33-.02,10.31.5,20.8-1.18,30.88-3.01,17.99-13.79,30.71-30.65,37.81-30.77,12.98-62.73,21.88-96,24.98-20.65,1.92-41.5,3.36-62.2,2.81-45.39-1.2-89.41-10.21-131.05-28.72-19.39-8.62-29.46-24.65-29.79-45.81-.48-30.46-.12-60.93-.12-91.4ZM24.72,213.93c0,29.8.13,59.61-.06,89.41-.09,14.22,6.35,23.45,19.39,28.84,41.56,17.17,84.99,24.99,129.74,25.64,24.8.36,49.46-2.07,73.82-6.94,21.71-4.34,42.87-10.61,63.27-19.24,12.1-5.12,18.24-14.31,18.23-27.65-.05-59.61-.07-119.22.07-178.83.03-11.64-4.84-20.31-14.64-26-40.68-23.64-81.48-47.09-122.23-70.63-10.44-6.03-20.74-5.91-31.18.14-40.16,23.24-80.38,46.4-120.57,69.59-10.67,6.16-16.12,15-15.96,27.75.36,29.3.11,58.61.12,87.91Z"/><path class="cls-1" d="M212.49,219.55c-9.37,2.86-17.76,6.4-26.48,7.84-13.22,2.17-26.66,3.1-40.04,4.06-3.86.28-5.15,1.05-5.1,5.07.2,17.31.1,34.62.08,51.93,0,6.89-1.48,8.5-8.46,8.65-6.82.15-13.65.17-20.47-.03-7.19-.21-8.69-1.88-8.7-9.05-.02-19.64-.14-39.28.1-58.92.05-4.08-1.35-5.78-5.02-7.16-6.36-2.37-12.56-5.26-18.66-8.25-5.94-2.91-6.53-5.37-3.33-11.09,4.58-8.18,4.54-7.29,15.2-6.82,18.55.82,37.21,1.37,55.73.31,27.94-1.6,54.62-9.34,79.92-21.2,11.7-5.49,22.81-12.27,34.08-18.65,5.04-2.86,6.53-2.69,9.58,2.32,5.41,8.88,5.58,9.02-1.11,16.85-4.75,5.55-9.72,10.98-15.14,15.86-3.33,3-4.46,6.07-4.44,10.38.14,27.46.08,54.92.06,82.38,0,2.33-.11,4.66-.23,6.98-.18,3.78-2.18,5.87-5.98,5.91-8.15.09-16.3.07-24.45.1-4.79.01-6.91-2.62-7.07-7.16-.05-1.5-.05-3-.05-4.49,0-19.97,0-39.94,0-59.92v-5.89Z"/><path class="cls-1" d="M140.95,154.19c0,8.64-.11,17.29.06,25.92.06,3.24-1.2,4.57-4.31,4.56-9.64-.03-19.27-.04-28.91,0-3.4.01-4.55-1.54-4.53-4.91.12-16.95.02-33.9.08-50.85.02-5.81,2.01-7.72,7.81-7.76,7.31-.05,14.62-.04,21.94,0,6.18.04,7.83,1.75,7.86,8.11.04,8.31,0,16.62,0,24.93Z"/><path class="cls-1" d="M227.5,154.78c-13.26.09-22.59-11.49-19.71-24.48,2.86-12.89,12.53-21.88,25.59-23.77,11.6-1.68,22.31,7.93,22.29,19.99-.03,14.43-13.71,28.16-28.17,28.26Z"/></svg>