<svg width="11" height="11" viewBox="0 0 11 11" fill="none" xmlns="http://www.w3.org/2000/svg">
<path d="M1.53003 8.85394C-0.635629 6.6781 -0.486482 3.19126 1.8707 1.21234C4.15248 -0.703453 7.70779 -0.300441 9.50912 2.07232C10.0991 2.84921 10.4343 3.71782 10.5421 4.67599C10.5691 4.91337 10.5339 5.12917 10.3253 5.27862C9.96261 5.5392 9.50416 5.32016 9.44968 4.84755C9.37428 4.19475 9.1844 3.5851 8.83383 3.02185C7.8696 1.47131 5.92904 0.733797 4.12992 1.24094C2.31429 1.75239 1.07378 3.38764 1.11011 5.22251C1.15138 7.30933 2.67532 8.97317 4.7898 9.24455C4.93344 9.26289 5.08589 9.28285 5.21247 9.34436C5.43702 9.45388 5.53498 9.7123 5.47279 9.94213C5.404 10.1984 5.18661 10.384 4.89492 10.3333C4.33905 10.2362 3.78429 10.1121 3.24549 9.9486C2.945 9.85743 2.66267 9.68532 2.39739 9.51214C2.0936 9.31414 1.81787 9.0746 1.53003 8.85286V8.85394Z" fill="black"/>
</svg>
