<svg width="32" height="24" viewBox="0 0 32 24" fill="none" xmlns="http://www.w3.org/2000/svg">
<path d="M10.9626 14.2867C10.8806 14.2063 10.798 14.1254 10.716 14.045C7.68134 11.0701 4.64997 8.09205 1.60925 5.1226C0.977987 4.50594 0.641719 3.78893 0.756743 2.91601C0.891581 1.89094 1.46505 1.16962 2.46505 0.827568C3.4634 0.486059 4.37865 0.691612 5.13319 1.41024C6.31701 2.53781 7.47221 3.69398 8.64007 4.83774C8.71547 4.91165 8.79087 4.98556 8.85691 5.0503C9.04678 4.69315 9.18602 4.33977 9.40231 4.03926C10.262 2.84371 12.0947 2.67053 13.1877 3.66646C13.443 3.89899 13.683 4.14663 13.9318 4.38617C13.9939 4.44605 14.0622 4.50054 14.1569 4.58309C14.437 3.53752 15.0583 2.84263 16.109 2.59554C17.1602 2.3479 18.038 2.68995 18.7711 3.4895C18.814 3.4021 18.847 3.35247 18.8641 3.29798C19.4557 1.40484 21.7259 0.769841 23.1695 2.14936C25.164 4.05545 26.8222 6.21294 27.7496 8.82147C28.1497 9.94688 28.4172 11.1187 28.7215 12.2749C28.8965 12.939 29.2135 13.5006 29.7331 13.9668C30.4089 14.5737 31.0649 15.2022 31.7243 15.827C32.0903 16.1739 32.0903 16.4463 31.7364 16.7927C29.3764 19.1067 27.016 21.4206 24.6555 23.734C24.2911 24.0912 24.0209 24.089 23.6472 23.7238C22.8288 22.9242 22.0083 22.1268 21.1992 21.3181C21.0204 21.1395 20.8255 21.0225 20.5779 21.0214C19.8008 21.0176 19.0231 21.0144 18.2466 21.0365C17.8354 21.0484 17.4265 21.125 17.0154 21.1536C15.8718 21.2334 14.8321 20.8946 13.8184 20.4101C13.0209 20.0292 12.2031 19.6861 11.3803 19.3602C10.7248 19.1007 10.0396 19.0991 9.35113 19.2539C8.98514 19.3365 8.61585 19.4077 8.24546 19.4703C6.73803 19.7249 5.56577 18.8558 5.37314 17.3646C5.25207 16.428 5.63566 15.7606 6.45295 15.3074C7.75069 14.5872 9.16181 14.3406 10.6346 14.3611C10.7325 14.3628 10.8294 14.4005 10.9268 14.421C10.9389 14.3762 10.9505 14.3309 10.9626 14.2861V14.2867ZM30.6472 16.3088C30.5663 16.2295 30.4981 16.1599 30.4265 16.093C29.8365 15.5405 29.2438 14.9902 28.656 14.4351C28.2867 14.0865 28.0088 13.677 27.8602 13.1926C27.7182 12.7281 27.5801 12.2619 27.4562 11.7925C27.1403 10.5927 26.8679 9.38094 26.333 8.24635C25.377 6.21942 24.005 4.49191 22.3935 2.93435C22.2966 2.84101 22.1849 2.75523 22.066 2.69211C21.426 2.3533 20.6208 2.51083 20.2014 3.04819C19.7364 3.64434 19.7639 4.42933 20.2862 4.97423C20.6439 5.34757 21.0264 5.69825 21.3875 6.06836C21.5922 6.27822 21.5933 6.56956 21.4144 6.77889C21.2323 6.99253 20.9136 7.03354 20.6687 6.86683C20.5867 6.81072 20.5173 6.73627 20.4463 6.66667C19.5768 5.81533 18.7089 4.96236 17.8376 4.11264C17.7276 4.00527 17.6137 3.89575 17.4832 3.81699C16.8299 3.42368 16.0143 3.57205 15.5305 4.16119C15.0826 4.70717 15.1205 5.54449 15.6406 6.0635C16.4953 6.91646 17.3632 7.75702 18.2256 8.60243C18.3231 8.69792 18.4249 8.78964 18.5146 8.89106C18.7149 9.1182 18.7116 9.41924 18.5135 9.6248C18.3099 9.83682 17.9835 9.85031 17.7435 9.65393C17.6802 9.60214 17.6247 9.54225 17.5663 9.48452C16.3148 8.25768 15.0633 7.03084 13.8112 5.804C13.3638 5.36537 12.9246 4.91812 12.4656 4.49137C11.7463 3.82184 10.5823 4.02416 10.1293 4.88629C9.82444 5.46626 9.94772 6.12446 10.4684 6.63646C12.1266 8.26577 13.7881 9.89185 15.4474 11.5201C15.525 11.5962 15.607 11.6712 15.6709 11.7575C15.8415 11.9905 15.8134 12.2819 15.612 12.4691C15.4095 12.6574 15.1128 12.6682 14.885 12.488C14.7925 12.4146 14.7111 12.3283 14.6269 12.2457C11.2801 8.96552 7.93396 5.6853 4.58723 2.40509C4.48982 2.3096 4.39516 2.21087 4.29059 2.12401C3.73528 1.66057 2.92625 1.64223 2.38965 2.07599C1.81948 2.53727 1.65713 3.30823 2.02477 3.92219C2.13869 4.11264 2.30435 4.27719 2.4656 4.43526C5.86186 7.76889 9.25977 11.0998 12.6599 14.4297C12.8784 14.6438 13.0666 14.864 12.9191 15.1861C12.7722 15.506 12.481 15.5189 12.1717 15.5044C11.5487 15.4752 10.9252 15.4375 10.3021 15.4466C9.08366 15.4644 7.91415 15.6986 6.86516 16.3422C6.71216 16.4361 6.55366 16.5942 6.49918 16.7555C6.19593 17.6554 6.98184 18.5677 7.93121 18.4317C8.33902 18.3735 8.74464 18.2947 9.1464 18.2046C10.0776 17.9958 10.9901 18.0568 11.8762 18.3945C12.4986 18.6319 13.1084 18.9016 13.7199 19.1665C14.0044 19.2896 14.2818 19.4304 14.5581 19.5706C15.6131 20.1074 16.7237 20.1722 17.8789 19.9979C18.9345 19.8393 19.9962 19.8042 21.0539 20.0147C21.3693 20.0772 21.6291 20.211 21.858 20.4419C22.535 21.126 23.2284 21.7934 23.9169 22.4667C23.9912 22.5396 24.0738 22.6048 24.153 22.6739C26.3269 20.5428 28.4766 18.4355 30.6461 16.3088H30.6472Z" fill="black"/>
</svg>
