<svg width="60" height="46" viewBox="0 0 60 46" fill="none" xmlns="http://www.w3.org/2000/svg">
<g clip-path="url(#clip0_223_2868)">
<path d="M22.9924 28.9325C22.8482 28.7913 22.7029 28.6491 22.5587 28.5078C17.2204 23.2806 11.8879 18.0476 6.53891 12.8298C5.42846 11.7463 4.83693 10.4864 5.03927 8.95251C5.27646 7.15131 6.28526 5.88383 8.04437 5.2828C9.80057 4.68272 11.4106 5.0439 12.7379 6.30664C14.8204 8.28796 16.8525 10.3195 18.9069 12.3293C19.0395 12.4592 19.1721 12.589 19.2883 12.7028C19.6223 12.0752 19.8673 11.4543 20.2477 10.9262C21.76 8.82547 24.9839 8.52117 26.9066 10.2712C27.3558 10.6798 27.7779 11.1149 28.2155 11.5358C28.3249 11.641 28.445 11.7368 28.6115 11.8818C29.1043 10.0446 30.1973 8.82358 32.0455 8.38939C33.8946 7.95426 35.4388 8.55529 36.7284 9.96023C36.8039 9.80665 36.862 9.71944 36.892 9.62369C37.9327 6.29716 41.9263 5.18136 44.4657 7.6054C47.9742 10.9547 50.8912 14.7457 52.5226 19.3293C53.2264 21.3068 53.6969 23.3659 54.2323 25.3975C54.5402 26.5644 55.0978 27.5513 56.0117 28.3704C57.2006 29.4369 58.3546 30.5413 59.5144 31.6391C60.1583 32.2486 60.1583 32.7274 59.5357 33.336C55.3844 37.402 51.232 41.4679 47.0797 45.533C46.4388 46.1605 45.9634 46.1567 45.3061 45.5149C43.8664 44.11 42.4229 42.7089 40.9998 41.2878C40.6851 40.974 40.3424 40.7683 39.9067 40.7664C38.5397 40.7598 37.1718 40.7541 35.8057 40.793C35.0825 40.8138 34.3632 40.9484 33.64 40.9987C31.6282 41.139 29.7994 40.5436 28.0161 39.6923C26.6133 39.023 25.1746 38.4201 23.7272 37.8475C22.5742 37.3915 21.3688 37.3887 20.1577 37.6608C19.5139 37.8058 18.8643 37.931 18.2127 38.0409C15.561 38.4884 13.4989 36.9611 13.16 34.3409C12.947 32.6952 13.6218 31.5225 15.0595 30.7262C17.3424 29.4606 19.8247 29.0273 22.4154 29.0634C22.5877 29.0662 22.7581 29.1326 22.9295 29.1686C22.9508 29.0899 22.9711 29.0103 22.9924 28.9316V28.9325ZM57.6198 32.4856C57.4775 32.3463 57.3574 32.224 57.2316 32.1064C56.1937 31.1357 55.1511 30.1687 54.1171 29.1932C53.4675 28.5808 52.9785 27.8613 52.7171 27.01C52.4674 26.1938 52.2244 25.3747 52.0065 24.5499C51.4508 22.4416 50.9716 20.3124 50.0306 18.3187C48.3489 14.7571 45.9353 11.7216 43.1006 8.98474C42.9302 8.82073 42.7337 8.67 42.5246 8.55909C41.3987 7.96374 39.9823 8.24056 39.2445 9.18477C38.4265 10.2323 38.4749 11.6116 39.3936 12.5691C40.0229 13.2251 40.6958 13.8413 41.3309 14.4917C41.691 14.8604 41.693 15.3724 41.3783 15.7402C41.0579 16.1156 40.4973 16.1876 40.0665 15.8947C39.9222 15.7961 39.8003 15.6653 39.6754 15.543C38.1457 14.0471 36.619 12.5483 35.0864 11.0552C34.8928 10.8665 34.6924 10.6741 34.4629 10.5357C33.3137 9.84457 31.879 10.1053 31.028 11.1405C30.2399 12.0999 30.3067 13.5712 31.2216 14.4831C32.7251 15.9819 34.2519 17.4589 35.7689 18.9444C35.9403 19.1122 36.1194 19.2734 36.2772 19.4516C36.6296 19.8507 36.6238 20.3797 36.2753 20.7409C35.9171 21.1134 35.3429 21.1371 34.9208 20.7921C34.8095 20.7011 34.7117 20.5958 34.6091 20.4944C32.4076 18.3386 30.206 16.1829 28.0035 14.0271C27.2164 13.2564 26.4438 12.4705 25.6364 11.7207C24.371 10.5442 22.3234 10.8997 21.5267 12.4146C20.9903 13.4337 21.2072 14.5903 22.123 15.4899C25.04 18.3529 27.9628 21.2101 30.8818 24.0712C31.0183 24.2049 31.1625 24.3366 31.2748 24.4883C31.575 24.8979 31.5256 25.4098 31.1712 25.7387C30.815 26.0696 30.2931 26.0885 29.8923 25.7719C29.7297 25.643 29.5864 25.4913 29.4383 25.3463C23.551 19.5824 17.6648 13.8186 11.7775 8.05475C11.6061 7.88695 11.4396 7.71347 11.2557 7.56084C10.2788 6.74651 8.85567 6.71428 7.91173 7.47647C6.90874 8.28701 6.62314 9.6417 7.26986 10.7205C7.47026 11.0552 7.76167 11.3443 8.04534 11.6221C14.0197 17.4798 19.997 23.3327 25.9781 29.1838C26.3625 29.5601 26.6936 29.9469 26.4341 30.5129C26.1756 31.075 25.6635 31.0978 25.1194 31.0722C24.0235 31.021 22.9266 30.9546 21.8306 30.9707C19.6872 31.002 17.6299 31.4135 15.7846 32.5444C15.5155 32.7094 15.2367 32.9871 15.1408 33.2706C14.6074 34.8519 15.9899 36.4549 17.6599 36.216C18.3773 36.1136 19.0908 35.9752 19.7976 35.8169C21.4356 35.45 23.0408 35.5572 24.5995 36.1506C25.6945 36.5677 26.7672 37.0417 27.8428 37.5072C28.3433 37.7233 28.8313 37.9708 29.3173 38.2172C31.1732 39.1605 33.1269 39.2743 35.159 38.9681C37.0159 38.6894 38.8834 38.6277 40.7442 38.9975C41.2989 39.1074 41.7559 39.3425 42.1586 39.7483C43.3494 40.9503 44.5693 42.123 45.7804 43.3061C45.9111 43.4341 46.0564 43.5488 46.1958 43.6701C50.0199 39.9255 53.8015 36.2227 57.6179 32.4856H57.6198Z" fill="black"/>
<path d="M2.75653 15.4107C-1.14345 11.6238 -0.874863 5.55523 3.37002 2.11106C7.47913 -1.22325 13.8816 -0.521834 17.1255 3.60779C18.188 4.95992 18.7916 6.47167 18.9858 8.1393C19.0344 8.55245 18.9709 8.92804 18.5953 9.18813C17.9422 9.64166 17.1166 9.26044 17.0185 8.43789C16.8827 7.30173 16.5408 6.24068 15.9094 5.26039C14.173 2.56177 10.6784 1.27819 7.43849 2.16083C4.16885 3.05098 1.93491 5.89702 2.00032 9.09048C2.07465 12.7224 4.81901 15.6183 8.62682 16.0906C8.8855 16.1225 9.16004 16.1572 9.38799 16.2643C9.79236 16.4549 9.96877 16.9047 9.85678 17.3047C9.73289 17.7507 9.34141 18.0737 8.81612 17.9854C7.81511 17.8164 6.81608 17.6004 5.84579 17.3159C5.30465 17.1572 4.79622 16.8577 4.31851 16.5563C3.77142 16.2117 3.27488 15.7948 2.75653 15.4089V15.4107Z" fill="black"/>
</g>
<defs>
<clipPath id="clip0_223_2868">
<rect width="60" height="46" fill="white"/>
</clipPath>
</defs>
</svg>
