<svg width="21" height="21" viewBox="0 0 21 21" fill="none" xmlns="http://www.w3.org/2000/svg">
<path d="M10.4908 21C4.68392 20.9731 -0.0306896 16.2892 0.000150445 10.4594C0.0326727 4.43047 4.89307 -0.0356983 10.529 0.000215049C16.097 0.0361284 20.9961 4.51295 21 10.5099C21.0039 16.3301 16.2349 20.9921 10.4908 21ZM7.82344 9.97235C8.50472 9.97235 9.18601 9.96898 9.86729 9.97515C10.0047 9.97628 10.0467 9.93363 10.0462 9.79839C10.0417 8.7816 10.0417 7.7648 10.0462 6.74744C10.0467 6.6122 10.0013 6.56675 9.86729 6.56338C9.47478 6.55384 9.08171 6.54711 8.69088 6.51176C7.95521 6.44554 7.22177 6.36081 6.48778 6.28113C6.37788 6.26934 6.29601 6.26093 6.25059 6.40121C5.89173 7.50555 5.68089 8.63682 5.6108 9.79559C5.60295 9.9297 5.63716 9.97684 5.77902 9.97515C6.4603 9.96842 7.14159 9.97179 7.82288 9.97179L7.82344 9.97235ZM18.1678 9.97235C18.7049 9.97235 19.2421 9.96954 19.7787 9.97459C19.9077 9.97571 19.9559 9.9398 19.9363 9.80513C19.8881 9.46788 19.8634 9.12726 19.804 8.79226C19.5937 7.61385 19.1647 6.51793 18.5345 5.50001C18.4745 5.40293 18.4167 5.39115 18.3079 5.42089C17.5072 5.6403 16.7054 5.85409 15.9007 6.05947C15.7662 6.0937 15.7353 6.12737 15.7785 6.26598C16.1402 7.42306 16.3605 8.60652 16.4088 9.81972C16.4138 9.94373 16.4581 9.97515 16.5742 9.97459C17.1052 9.9701 17.6367 9.97235 18.1678 9.97235ZM15.3467 9.97628C15.3265 9.70188 15.3108 9.44487 15.289 9.18843C15.2082 8.24738 15.0114 7.32991 14.7215 6.43095C14.68 6.30301 14.6183 6.27944 14.4944 6.29067C13.4262 6.38606 12.3575 6.47977 11.2882 6.56058C11.1183 6.57348 11.0785 6.63016 11.0796 6.78896C11.0858 7.78219 11.0863 8.77598 11.079 9.76921C11.0779 9.94036 11.1329 9.9802 11.2955 9.97964C12.5767 9.97347 13.858 9.97628 15.1393 9.97628H15.3467ZM2.79931 9.97235C3.33649 9.97235 3.8731 9.97066 4.41028 9.97403C4.51346 9.97459 4.56729 9.95439 4.57233 9.83318C4.62392 8.61493 4.84036 7.4253 5.20652 6.26261C5.24577 6.1386 5.22726 6.09651 5.09549 6.06228C4.30823 5.85971 3.52209 5.6532 2.74099 5.42987C2.57782 5.38329 2.50717 5.41528 2.42418 5.55164C1.62626 6.86304 1.16983 8.28274 1.05488 9.81354C1.04535 9.9398 1.08572 9.97459 1.20628 9.97347C1.73729 9.96898 2.26886 9.97179 2.79987 9.97123L2.79931 9.97235ZM7.83409 11.02C7.17019 11.02 6.50684 11.02 5.84294 11.02C5.60127 11.02 5.59734 11.02 5.61473 11.2703C5.6865 12.2994 5.87715 13.3061 6.17321 14.2937C6.21022 14.4178 6.26517 14.457 6.39582 14.4363C7.54307 14.2561 8.69761 14.154 9.85888 14.1377C10.0064 14.1355 10.0428 14.0844 10.0422 13.9458C10.0372 13.0334 10.0366 12.121 10.0428 11.2086C10.0439 11.0514 9.99009 11.0155 9.84206 11.0172C9.17255 11.0245 8.50304 11.0206 7.83353 11.0206L7.83409 11.02ZM19.9195 11.3438C19.9217 11.3152 19.9245 11.286 19.9268 11.2574C19.941 11.0939 19.8666 11.0122 19.7036 11.0122C18.6696 11.0122 17.6362 11.0144 16.6022 11.0093C16.4598 11.0088 16.3964 11.038 16.3902 11.1951C16.3454 12.3146 16.1547 13.4105 15.8391 14.4845C15.8026 14.6091 15.8391 14.6366 15.9557 14.6669C16.7755 14.8818 17.5941 15.1007 18.4083 15.3341C18.5642 15.3784 18.6292 15.3453 18.7038 15.2129C19.3851 14.0092 19.7967 12.7225 19.9195 11.3438ZM2.37428 15.3824C2.43539 15.3689 2.45726 15.365 2.47913 15.3588C3.29555 15.131 4.10973 14.8947 4.92952 14.6798C5.12857 14.6276 5.19979 14.6703 5.11063 14.3633C4.80672 13.3162 4.61663 12.2489 4.57233 11.1581C4.56672 11.0262 4.51121 11.0105 4.40299 11.011C3.33985 11.0138 2.27727 11.0144 1.21413 11.0105C1.08684 11.0105 1.04479 11.0419 1.05544 11.1777C1.13507 12.2119 1.36833 13.2096 1.77822 14.1619C1.95765 14.5788 2.17522 14.9789 2.37371 15.3829L2.37428 15.3824ZM13.2328 11.0122C12.5807 11.0122 11.9285 11.0172 11.2764 11.0088C11.1205 11.0065 11.0818 11.0582 11.083 11.2069C11.0891 12.1137 11.0897 13.0205 11.083 13.9273C11.0818 14.0906 11.1261 14.1417 11.2938 14.1456C12.3911 14.1703 13.4829 14.2646 14.5668 14.4368C14.7238 14.4615 14.7653 14.3992 14.8028 14.2719C15.1034 13.2668 15.2923 12.2427 15.3535 11.1945C15.3624 11.0441 15.3136 11.0088 15.1723 11.0099C14.5258 11.0161 13.8799 11.0127 13.2333 11.0127L13.2328 11.0122ZM9.98617 19.8177C10.003 19.8014 10.0198 19.7857 10.0366 19.7694C10.0411 19.7245 10.0495 19.6796 10.0495 19.6347C10.0501 18.2128 10.049 16.7914 10.0523 15.3695C10.0523 15.2325 10.0052 15.1826 9.8701 15.1916C9.01218 15.2477 8.1537 15.2971 7.29635 15.3571C7.0743 15.3728 6.85394 15.4166 6.61058 15.4508C6.64198 15.5322 6.6588 15.5922 6.68684 15.6467C6.9515 16.1595 7.19486 16.6848 7.48868 17.1803C7.97932 18.0085 8.55238 18.7779 9.30993 19.3861C9.5174 19.5528 9.75963 19.6751 9.98617 19.8177ZM14.3929 15.4609C14.3004 15.4435 14.2567 15.4312 14.2118 15.4273C13.2401 15.3464 12.2678 15.2696 11.296 15.1848C11.1306 15.1702 11.0891 15.2297 11.0897 15.3863C11.0942 16.7617 11.0919 18.1376 11.093 19.513C11.093 19.5719 11.1031 19.6302 11.1082 19.6892C11.1289 19.6976 11.1502 19.7054 11.171 19.7139C12.7584 18.7038 13.5737 17.1034 14.3924 15.4604L14.3929 15.4609ZM10.0249 1.12868C9.92729 1.16852 9.85776 1.19209 9.79328 1.22464C9.39123 1.42833 9.05816 1.72181 8.75368 2.0484C7.90194 2.96195 7.29859 4.0371 6.75301 5.14929C6.73674 5.18296 6.7345 5.22337 6.72385 5.26882C6.76815 5.2778 6.80067 5.28846 6.83375 5.2907C7.82231 5.3687 8.81144 5.4467 9.80056 5.5219C10.0232 5.53873 10.0249 5.53368 10.0249 5.31315C10.0249 3.99053 10.0249 2.66791 10.0249 1.34472V1.12812V1.12868ZM14.2942 5.27162C14.2696 5.20204 14.255 5.14817 14.2326 5.09767C13.8939 4.33507 13.4778 3.61793 12.9687 2.95633C12.5212 2.37499 12.0609 1.8043 11.4385 1.3941C11.3454 1.33294 11.2478 1.27795 11.1166 1.19826V1.41543C11.1166 2.71448 11.1194 4.0141 11.1127 5.31315C11.1115 5.477 11.1626 5.52414 11.3185 5.51292C12.1982 5.44895 13.078 5.39171 13.9578 5.32886C14.0643 5.32101 14.1698 5.29351 14.2942 5.27162ZM12.9563 19.582C14.0369 19.6897 17.5448 17.3424 17.9227 16.2656C17.8941 16.251 17.8661 16.2297 17.8341 16.2213C17.0973 16.0294 16.3594 15.8431 15.6249 15.6461C15.4488 15.599 15.3849 15.6685 15.3226 15.8201C14.7596 17.1808 14.0296 18.4384 13.0085 19.5118C12.9906 19.5309 12.9771 19.5545 12.9563 19.582ZM7.91708 19.619C7.92885 19.605 7.94007 19.5915 7.95184 19.5775C7.85372 19.4675 7.75391 19.3592 7.65802 19.2475C6.77712 18.2206 6.12555 17.0568 5.61304 15.8105C5.56258 15.6882 5.51323 15.6186 5.36128 15.659C4.64859 15.8487 3.9331 16.0288 3.21929 16.2145C3.16042 16.2297 3.1049 16.2594 3.02192 16.2925C4.31384 17.9412 5.95509 19.0175 7.91652 19.6196L7.91708 19.619ZM13.0769 1.4317C13.1111 1.47379 13.1442 1.51643 13.1795 1.55796C13.3259 1.72911 13.4784 1.89521 13.618 2.07197C14.3015 2.93894 14.8421 3.89064 15.2755 4.90295C15.3495 5.07522 15.437 5.10609 15.6035 5.06512C16.0291 4.95963 16.4592 4.87321 16.8842 4.76659C17.1898 4.68972 17.4904 4.59208 17.8324 4.49219C16.5411 2.96868 14.9783 1.94571 13.0769 1.4317ZM7.89633 1.41655C6.85113 1.41094 3.52657 3.60558 3.22995 4.49163C3.26135 4.50342 3.29219 4.51913 3.32471 4.52698C4.01329 4.69645 4.70298 4.85974 5.38931 5.03763C5.57211 5.08476 5.64669 5.0337 5.72183 4.86255C6.24835 3.65328 6.90608 2.52425 7.79876 1.54281C7.83241 1.50577 7.85988 1.46368 7.89633 1.41599V1.41655Z" fill="white"/>
</svg>
