<?xml version="1.0" encoding="UTF-8"?>
<svg id="Capa_1" data-name="Capa 1" xmlns="http://www.w3.org/2000/svg" version="1.1" viewBox="0 0 448 448">
  <defs>
    <style>
      .cls-1 {
        fill: #fff;
        stroke-width: 0px;
      }
    </style>
  </defs>
  <path class="cls-1" d="M100.3,448H7.4V148.9h92.9v299.1ZM53.8,108.1C24.1,108.1,0,83.5,0,53.8,0,24.09,24.09,0,53.8,0c29.71,0,53.79,24.09,53.8,53.8,0,29.7-24.1,54.3-53.8,54.3ZM447.9,448h-92.7v-145.6c0-34.7-.7-79.2-48.3-79.2s-55.7,37.7-55.7,76.7v148.1h-92.8V148.9h89.1v40.8h1.3c12.4-23.5,42.7-48.3,87.9-48.3,94,0,111.3,61.9,111.3,142.3v164.3h-.1Z"/>
</svg>