<?xml version="1.0" encoding="UTF-8"?>
<svg xmlns="http://www.w3.org/2000/svg" version="1.1" viewBox="0 0 512 384">
  <defs>
    <style>
      .cls-1 {
        fill: #fff;
      }
    </style>
  </defs>
  <!-- Generator: Adobe Illustrator 28.6.0, SVG Export Plug-In . SVG Version: 1.2.0 Build 709)  -->
  <g>
    <g id="Capa_1">
      <path class="cls-1" d="M48,0C21.5,0,0,21.5,0,48s7.1,29.3,19.2,38.4l217.6,163.2c11.4,8.5,27,8.5,38.4,0l217.6-163.2c12.1-9.1,19.2-23.3,19.2-38.4C512,21.5,490.5,0,464,0,464,0,48,0,48,0ZM0,112v208c0,35.3,28.7,64,64,64h384c35.3,0,64-28.7,64-64V112l-217.6,163.2c-22.8,17.1-54,17.1-76.8,0L0,112Z"/>
    </g>
  </g>
</svg>