<?xml version="1.0" encoding="UTF-8"?><svg id="Capa_1" xmlns="http://www.w3.org/2000/svg" viewBox="0 0 747.44 802.95"><defs><style>.cls-1{fill:#ff5a60;}</style></defs><path class="cls-1" d="M2.99,624.1c.63-4.4,1.37-8.78,1.86-13.19,2.86-25.8,12.42-49.46,22.97-72.85C93.13,393.2,163.91,251,236.57,109.72c9.91-19.27,19.82-38.52,33.58-55.39,23.28-28.55,52.83-46.39,89.88-50.28,46.69-4.91,84.58,11.92,114.95,47.2,17.49,20.31,28.87,44.2,41.04,67.67,50.84,98.07,100.33,196.8,147.46,296.71,12.63,26.77,25.22,53.56,37.56,80.46,10.53,22.96,21.02,45.95,30.85,69.22,8.89,21.04,13.97,43.27,12.22,66.09-4.95,64.33-32.21,115.62-90.15,147.78-28.02,15.55-58.36,22.41-90.31,20.13-38.47-2.74-73.45-16.03-105.58-37.21-29.82-19.66-55.86-43.6-80.17-69.57-4.72-5.05-4.77-5.11-9.38-.16-21.72,23.33-44.7,45.26-70.94,63.55-27.58,19.22-57.34,33.36-90.55,40.18-91.73,18.84-180.82-40.35-199.67-130.62-1.55-7.44-2.06-15.1-3.14-22.64-.23-1.61-.82-3.17-1.24-4.75,0-4.66,0-9.32,0-13.99ZM53.13,632.56c.45,5.79.65,11.61,1.39,17.37,6.86,53.45,52.7,100.97,116.63,102.4,22.88.51,44.52-4.89,65.07-14.69,40.78-19.46,73.01-49.62,102.78-82.75.85-.95.75-3.79-.04-4.98-2.86-4.28-6.26-8.19-9.39-12.3-28.43-37.31-54.18-76.27-71.56-120.1-13.77-34.72-23.49-70.23-17.82-108.27,5.34-35.89,22.25-64.87,51.7-86.02,31.02-22.27,65.79-29.92,103.56-24.54,26.92,3.84,50.84,14.27,71,32.54,33.81,30.65,45.53,69.69,41.8,114.06-2.43,28.91-10.91,56.3-22.63,82.75-18.54,41.85-43.9,79.41-72.15,115.17-6.79,8.59-6.92,8.6.47,16.47,25.04,26.66,51.58,51.53,83.63,69.84,29.89,17.07,61.68,26,96.13,20.61,55.74-8.72,99.34-54.86,101.34-116.38.66-20.19-3.38-39.71-11.34-58.25-8.45-19.7-17.33-39.22-26.29-58.7-10.21-22.21-20.67-44.3-31.1-66.4-50.39-106.78-102.51-212.71-156.85-317.53-7.64-14.73-15.46-29.6-25.15-42.99-30.57-42.22-87.37-47.75-126.16-13.02-11.33,10.15-19.4,22.84-26.23,36.21-37.42,73.34-75.49,146.36-111.72,220.29-37.61,76.73-73.49,154.31-109.87,231.65-10.03,21.31-17.57,43.45-17.2,67.57ZM373.58,611.99c1.57-1.69,2.42-2.47,3.12-3.37,23.25-30.09,44.62-61.4,60.72-95.98,14.16-30.41,24.9-61.66,20.8-96.08-2.48-20.83-10.92-38.82-27.08-52.29-22.77-18.97-49.38-23.93-77.84-17.54-36.08,8.1-63.64,35.55-64.65,81.37-.36,16.23,2.59,32.09,7.28,47.58,12.01,39.66,32.92,74.71,56.7,108.21,6.62,9.33,13.67,18.35,20.96,28.1Z"/></svg>