<?xml version="1.0" encoding="UTF-8"?><svg id="Capa_1" xmlns="http://www.w3.org/2000/svg" viewBox="0 0 1658.33 453.33"><defs><style>.cls-1{fill:#fff;}</style></defs><path class="cls-1" d="M768.75,421.37c0,3.92.06,7.85-.01,11.77-.13,7.4-4.06,11.32-11.55,11.34-19.16.05-38.31-.1-57.47.11-4.28.05-5.29-1.48-5.28-5.49.08-143.99.09-287.99-.02-431.98,0-4.65,1.43-6.04,5.97-6,21.15.18,42.31.18,63.47,0,4.54-.04,5.97,1.35,5.96,6-.16,51.77-.1,103.54-.1,155.31v6.9c1.92-1.37,3.04-1.95,3.9-2.8,17.47-17.16,38.64-26.27,62.87-28.03,49.11-3.56,91.11,12.1,124.82,48.13,22.01,23.52,34.27,51.88,38.54,83.79,4.62,34.52.42,67.79-15.5,98.85-23.44,45.74-61.08,72.72-111.79,81.23-26.36,4.42-52.2,2.97-76.15-10.09-8.08-4.41-15.11-10.75-22.57-16.27-1.29-.95-2.39-2.17-3.58-3.27-.5.16-1,.33-1.5.49ZM769.71,294.22c0,13.32.97,26.72-.28,39.92-1.21,12.77,4.08,21.28,13.4,28.49.66.51,1.28,1.06,1.95,1.56,25.21,19.12,53.16,21.13,82.42,12.43,26.03-7.74,44.47-24.27,53.68-50.08,4.96-13.91,6.4-28.33,4.72-43.18-2.44-21.55-10.63-40.08-27.22-54.33-18.28-15.7-39.95-21.84-63.75-21.39-25.16.47-45.39,11.4-62.02,29.59-1.78,1.94-2.73,5.32-2.78,8.05-.25,16.31-.12,32.62-.13,48.93Z"/><path class="cls-1" d="M1424.48,420.02c0,5.49.09,9.47-.02,13.44-.18,6.55-4.49,10.97-11.01,10.99-19.66.08-39.32-.02-58.98.09-3.29.02-4.6-1.21-4.31-4.4.09-.99,0-2,0-3,0-142.68,0-285.35,0-428.03q0-7.92,7.92-7.93c20.49,0,40.98.1,61.47-.08,4.49-.04,6.02,1.24,6,5.96-.16,51.78-.1,103.55-.1,155.33v6.85c1.84-1.35,2.94-1.96,3.8-2.81,17.36-17.01,38.4-25.89,62.42-27.96,76.72-6.61,147.49,43.54,162.36,124.71,8.88,48.49-.19,93.76-31.41,133.04-24.11,30.34-55.92,48.1-94.16,54.26-23.88,3.85-47.37,3.12-69.96-6.76-11.1-4.86-21.09-11.34-29.62-20-.99-1.01-2.17-1.83-4.42-3.7ZM1425.46,294.11c0,13.31,1.1,26.74-.3,39.9-1.44,13.54,4.65,22.14,14.38,29.47,4.24,3.19,8.68,6.21,13.35,8.69,16.94,8.98,35.06,10.84,53.78,8.09,24.94-3.66,46-14.17,60.53-35.46,11.7-17.14,15.4-36.33,14.22-56.86-1.15-19.96-7.4-37.74-20.95-52.59-14.67-16.08-33.42-24.12-54.73-26.96-30.94-4.13-56.58,6.04-77.51,28.69-1.69,1.83-2.63,5.02-2.66,7.6-.23,16.47-.12,32.95-.12,49.42Z"/><path class="cls-1" d="M233.73,168.3c0-3.59-.07-7.19.01-10.78.17-7.25,4.68-11.88,11.91-11.91,19.32-.09,38.65.04,57.97-.1,3.59-.03,4.84,1.38,4.55,4.72-.07.83,0,1.66,0,2.5,0,94.89,0,189.77,0,284.66q0,7.11-7.09,7.11c-18.32,0-36.65.02-54.97-.01-8.51-.01-12.32-3.93-12.37-12.58-.02-3.47,0-6.95,0-11.78-2.08,1.74-3.33,2.63-4.39,3.7-16.1,16.27-35.78,25.18-58.32,27.66-74.73,8.25-146.38-36.65-164.46-114.61-14.42-62.21-1.18-118,47.62-162.2,22.15-20.06,48.85-31.03,78.46-35.28,25.83-3.71,50.87-1.95,74.19,10.52,7.97,4.26,14.9,10.48,22.27,15.84,1.18.86,2.2,1.94,3.29,2.92.45-.12.9-.25,1.36-.37ZM233.73,295.23c0-14.14-.78-28.34.26-42.41.79-10.68-3.64-17.72-11.24-23.85-1.55-1.25-3.06-2.57-4.66-3.76-20.67-15.41-43.9-19.89-68.94-15.42-29.32,5.23-51.99,19.88-64.36,47.85-6.63,15-8.53,30.83-6.95,47.22,2.22,23.08,11,42.78,29.34,57.32,20.7,16.4,44.67,22.01,70.73,19.23,20.03-2.14,36.73-10.91,50.5-25.51,3.68-3.9,5.61-8.06,5.46-13.76-.42-15.63-.14-31.27-.14-46.91Z"/><path class="cls-1" d="M1105.58,169.83c2.36-1.93,3.51-2.78,4.56-3.75,18.29-16.94,40.12-25.42,64.77-27.67,23.12-2.11,45.62.33,66.84,9.71,38.2,16.9,61,45.63,64.85,87.98.99,10.91,1.81,21.87,1.85,32.81.18,56.76.02,113.52.2,170.28.02,5.14-1.45,6.43-6.46,6.36-20.65-.28-41.31-.11-61.96-.12q-6.88,0-6.89-6.71c0-54.1.21-108.2-.18-162.29-.08-11.36-1.5-22.89-3.87-34.01-4.48-20.96-18.61-32.25-39.42-35.55-25-3.95-47.48,2.02-67.5,17.43-.26.2-.52.41-.79.6-7.78,5.46-11.4,12.06-11.3,22.43.59,63.58.24,127.17.4,190.75.01,4.96-1.15,6.59-6.34,6.51-21.15-.29-42.31-.23-63.46-.04-4.29.04-5.79-1.11-5.78-5.59.11-96.04.1-192.09.02-288.13,0-4.15,1.33-5.42,5.46-5.37,17.32.2,34.65.06,51.97.09,8.76.02,13.01,4.39,13.05,13.3.02,3.13,0,6.26,0,10.95Z"/><path class="cls-1" d="M558.43,168.87c1.52-1.45,2.97-2.97,4.57-4.33,20.05-17.08,42.86-27.31,69.59-26.81,8.42.16,16.83,1.67,25.18,3,1.5.24,3.78,2.58,3.8,3.97.23,21.3.15,42.61.11,63.91,0,.46-.3.92-.62,1.83-6.27-1.09-12.53-2.57-18.86-3.2-29.84-2.98-57.35,2.02-79.94,23.72-3.25,3.12-4.56,6.4-4.55,10.94.13,65.75.03,131.5.2,197.24.01,5.06-1.3,6.49-6.4,6.42-20.98-.29-41.97-.23-62.96-.03-4.39.04-6.06-.89-6.05-5.74.14-96.21.13-192.42.02-288.63,0-4.33,1.14-5.74,5.6-5.68,18.65.23,37.31.07,55.96.11,8.72.02,12.72,4.09,12.77,12.85.02,3.27,0,6.53,0,9.8.53.21,1.06.42,1.58.63Z"/><path class="cls-1" d="M357.68,295.11c0-47.62,0-95.23,0-142.85q0-6.69,6.9-6.69c20.99,0,41.99.1,62.98-.08,4.12-.04,5.43,1.18,5.42,5.35-.1,96.07-.11,192.13.02,288.2,0,4.54-1.51,5.58-5.77,5.54-21.32-.19-42.65-.2-63.98,0-4.37.04-5.68-1.19-5.67-5.62.15-47.95.09-95.9.09-143.85Z"/><path class="cls-1" d="M344.48,50.86c.25-28.88,22.39-50.57,51.33-50.28,28.16.29,51.15,23.45,50.99,51.38-.16,28.34-23.76,51.12-52.62,50.8-27.69-.3-49.94-23.55-49.7-51.91Z"/></svg>