<?xml version="1.0" encoding="UTF-8"?>
<svg xmlns="http://www.w3.org/2000/svg" version="1.1" viewBox="0 0 799.3 135">
  <defs>
    <style>
      .cls-1, .cls-2 {
        fill: #fff;
      }

      .cls-2, .cls-3 {
        fill-rule: evenodd;
      }

      .cls-3, .cls-4 {
        fill: #2faae1;
      }
    </style>
  </defs>
  <!-- Generator: Adobe Illustrator 28.6.0, SVG Export Plug-In . SVG Version: 1.2.0 Build 709)  -->
  <g>
    <g id="Capa_1">
      <g id="bcom-logo-white">
        <g id="bcom-fullcolor-white">
          <path id="Shape" class="cls-3" d="M753.2,42.3l-1.5,1.9-1.2-2.1c-3.8-7.1-10.4-10.6-19.6-10.6s-16.1,5.4-19,8.6l-2,2.1-.7-2.8c-1.1-4.1-4.7-6.3-10.1-6.3h-7.9v73c0,0,18.9,0,18.9,0v-32.2c0-2.8.3-5.6,1-8.5,1.9-7.8,7.1-16.2,15.8-15.3,5.4.7,7.8,4.6,7.8,12.8v43.3h17.9v-32.2c0-3.5.3-6.2,1.1-8.8,1.6-7.4,8.2-15.1,16.6-15.1s9.1,3.3,9.1,12.8v32.6c0,7.2,4.6,10.5,11.7,10.7h7.7v-46.6c.3-18.6-8.2-28.1-23.8-28.1s-16.5,4.1-21.8,10.9h0Z"/>
          <path id="Shape-2" data-name="Shape" class="cls-3" d="M606.2,69.7c0,21.7,16.9,38.1,39,38.1s38-16,38-38c.1-21.9-16-38.4-38.1-38.4s-38.9,16.2-38.9,38.2h0ZM645.3,89.9c-10.4,0-17.6-8.3-17.6-20.2s7.2-20.2,17.6-20.2,17.6,8.5,17.6,20.2c.2,12.4-6.8,20.3-17.8,20.3h.2Z"/>
          <path id="Shape-3" data-name="Shape" class="cls-3" d="M592.6,80.8c0,0-8.6,9.1-19.7,9.1s-20.5-6.3-20.5-20.4,8-20.7,19.4-20.7,7.8,1.3,8.5,3.6v.4c1.6,5.3,6,5.3,7.3,5.4h10.8v-9.6c0-12.6-15.9-17.2-26.5-17.2-22.8,0-39.4,16.1-39.4,38.2s16.3,38.1,39,38.1,30.3-13,30.4-13.2l.6-.7-8.6-14.4-1.2,1.3h0Z"/>
          <circle id="Oval-2" class="cls-4" cx="514" cy="94.4" r="12.5"/>
          <path id="Shape-4" data-name="Shape" class="cls-2" d="M473.9,37.2l-.6,1.1-1-.8c-3.3-2.9-9.3-6.4-19-6.4-19.3,0-32.4,14.7-32.4,36.5s13.7,36.8,32.5,36.8,11.8-1.6,15.9-4.7l1.6-1.2v2c0,9.8-6.3,15.2-17.6,15.2s-10.5-1.4-13.9-2.6c-4.4-1.3-7-.2-8.7,4.2l-1.6,4.1-2.3,6,1.4.8c7.3,3.9,16.9,5.9,25.4,5.9,17.6,0,36.6-9.1,36.6-34.7V32.1c0,0-7.8,0-7.8,0-3.9,0-6.9,2.1-8.5,5h0ZM442.1,67c0-4.1,1-17.5,14.2-17.5s15.6,2,15.6,18.2c-.3,15.3-8.3,18.6-14.8,18.6h.3c-11.3,0-15.3-10-15.3-19.3h0Z"/>
          <path id="Shape-5" data-name="Shape" class="cls-2" d="M390.1,31.2c-10.6,0-17.4,4.8-21.1,8.8l-1.3,1.3-.4-1.8c-1.1-4.3-4.9-6.7-10.5-6.7h-9.1v73.3h19.3v-33.8c0-3.3.4-6.2,1.3-8.8,2.3-7.9,7.5-12.8,15.5-12.8s10.4,3.3,10.4,12.3v31.9c0,7.9,4.6,11.2,12.4,11.1h7.1v-46.2c-.4-18.3-6.7-28.9-23.6-28.9"/>
          <path id="Shape-6" data-name="Shape" class="cls-2" d="M335.9,106.1v-62.1c0-7.5-3.5-11.1-10.9-11.1h-8.2s0,56.7,0,56.7h0v17.2h19"/>
          <circle id="Oval-2-2" data-name="Oval-2" class="cls-1" cx="326" cy="13.4" r="12.5"/>
          <path id="Shape-7" data-name="Shape" class="cls-2" d="M291.3,71.2c-.9-1.6-1.8-3-2.9-4.1l-.7-.7.7-.7c1-1.1,2-2.3,3-3.8l19.4-29.1h-23.5l-14.5,22.7c-.8,1.2-2.5,1.8-5,1.8h-5V14.5c0-8.6-5.8-13-11.6-13h-7.7v104.7h19.3v-30.4h3.7c2.4,0,3.9,0,4.6,1.6l11.5,21.7c3.2,5.9,6.5,7.2,12.4,7h15.9l-11.9-19.9-7.6-14.9h0Z"/>
          <path id="Shape-8" data-name="Shape" class="cls-2" d="M160.3,69.3c0,21.7,15.6,38.1,37.7,38.1s38-16,38-38c.2-21.9-15.6-38.4-37.8-38.4s-38,16.2-38,38.2h0ZM198.1,89.6c-10.4,0-17.6-8.3-17.6-20.2s7.2-20.2,17.6-20.2,17.6,8.5,17.6,20.2c.2,12.4-7.1,20.3-17.5,20.3h-.1Z"/>
          <path id="Shape-9" data-name="Shape" class="cls-2" d="M77.4,69.3c0,21.7,15.6,38.1,37.7,38.1s38-16,38-38c.1-21.9-16-38.4-38.2-38.4s-37.6,16.2-37.6,38.2h0ZM115.3,89.6c-10.4,0-17.6-8.3-17.6-20.2s7.2-20.2,17.6-20.2,17.6,8.5,17.6,20.2c.1,12.4-6.8,20.3-17.8,20.3h.3Z"/>
          <path id="Shape-10" data-name="Shape" class="cls-2" d="M55.1,52.4l2.7-2.3c3.1-2.7,8.3-8.7,8.3-19.1,0-16-12.2-25.6-31.2-25.6H12.1c-5.6,0-11.6,6-11.6,11.7v89.7h34.7c21.1,0,34.7-12.5,34.7-30.5,0-9.7-4.3-18.2-11.5-22.2l-3.3-1.7h0ZM19.8,33.9h0v-5.4c0-4.7,2-6.9,6.3-7.2h8.6c7.4,0,11.7,4.6,11.7,11.9s-3,11.1-11.5,11.1h-15v-10.5h0ZM19.8,87.3v-18.9c0-4.4,1.7-6.6,5.4-7.1h11.5c8.2,0,13.7,5.3,13.7,13.8-.2,8.7-5.2,12.2-13.7,12.2h-16.8Z"/>
        </g>
      </g>
    </g>
  </g>
</svg>